<?xml version="1.0" ?><svg height="32" id="svg4917" version="1.1" width="32" xmlns="http://www.w3.org/2000/svg" xmlns:cc="http://creativecommons.org/ns#" xmlns:dc="http://purl.org/dc/elements/1.1/" xmlns:inkscape="http://www.inkscape.org/namespaces/inkscape" xmlns:rdf="http://www.w3.org/1999/02/22-rdf-syntax-ns#" xmlns:sodipodi="http://sodipodi.sourceforge.net/DTD/sodipodi-0.dtd" xmlns:svg="http://www.w3.org/2000/svg"><defs id="defs4919"/><g id="layer1" transform="translate(0,-1020.3622)"><path d="m 0.43750777,1026.3627 a 0.50005,0.50005 0 0 0 -0.4375000006766,0.5 l 0,9 0,1 0,9 a 0.50005,0.50005 0 0 0 0.5000000006766,0.5 l 30.99999923,0 a 0.50005,0.50005 0 0 0 0.5,-0.5 l 0,-9 0,-1 0,-9 a 0.50005,0.50005 0 0 0 -0.5,-0.5 l -30.99999923,0 a 0.50005,0.50005 0 0 0 -0.0625,0 z m 0.56249993,1 14.4999993,0 0,1.0312 1,0 0,-1.0312 14.5,0 0,2 -29.9999993,0 0,-2 z m 0,3 1,0 0,5.5 -1,0 0,-5.5 z m 2,0 8.9999993,0 0,5.5 -8.9999993,0 0,-5.5 z m 9.9999993,0 2.5,0 0,1.0312 1,0 0,-1.0312 2.5,0 0,5.5 0,1 0,5.5 -2.5,0 0,-0.9688 -1,0 0,0.9688 -2.5,0 0,-12 z m 7,0 9,0 0,5.5 -9,0 0,-5.5 z m 10,0 1,0 0,5.5 -1,0 0,-5.5 z m -14.5,2.0312 0,2 1,0 0,-2 -1,0 z m 0,3 0,2 1,0 0,-2 -1,0 z m -14.4999993,1.4688 1,0 0,5.5 -1,0 0,-5.5 z m 2,0 8.9999993,0 0,5.5 -8.9999993,0 0,-5.5 z m 16.9999993,0 9,0 0,5.5 -9,0 0,-5.5 z m 10,0 1,0 0,5.5 -1,0 0,-5.5 z m -14.5,1.5312 0,2 1,0 0,-2 -1,0 z m -14.4999993,4.9688 14.4999993,0 0,0.031 1,0 0,-0.031 14.5,0 0,2 -14.5,0 0,-0.9688 -1,0 0,0.9688 -14.4999993,0 0,-2 z" id="rect4583" style="font-size:medium;font-style:normal;font-variant:normal;font-weight:normal;font-stretch:normal;text-indent:0;text-align:start;text-decoration:none;line-height:normal;letter-spacing:normal;word-spacing:normal;text-transform:none;direction:ltr;block-progression:tb;writing-mode:lr-tb;text-anchor:start;baseline-shift:baseline;color:#000000;fill:#000000;fill-opacity:1;stroke:none;stroke-width:1;marker:none;visibility:visible;display:inline;overflow:visible;enable-background:accumulate;font-family:Sans;-inkscape-font-specification:Sans"/></g></svg>